# xmcd CD database file
#
# Track frame offsets:
#	182
#	11482
#	25255
#	39622
#	53215
#	68207
#	81160
#	92010
#	103590
#	117127
#	130315
#	145422
#	157710
#	172800
#	185917
#	197155
#	209037
#	224625
#	236722
#	248702
#	260025
#	272037
#	285102
#
# Disc length: 3976 seconds
#
# Revision: 0
# Processed by: cddbd v1.4PL0 Copyright (c) Steve Scherf et al.
# Submitted via: CDex 1.51
#
DISCID=540f8617
DTITLE=Louis Jordan - Louis Jordan and his Tympany Five (more hits, more rarities)
DYEAR=1900
DGENRE=Jazz
TTITLE0=Doug The Jitterburg
TTITLE1=Mama, Mama Blues (Rusty Dusty Blues)
TTITLE2=Ration Blues
TTITLE3=Mop-Mop
TTITLE4=You Can't Get That No More
TTITLE5=Salt Pork, West Virginia
TTITLE6=Reconversation Blues
TTITLE7=That Chick's too Young to Fry
TTITLE8=Texas and Pacific
TTITLE9=Open the Door Richard
TTITLE10=Every Man to his Own Profession
TTITLE11=You're much too Fat and That's That
TTITLE12=Heed My Warning!
TTITLE13=Show me How (You Milk the Cow)
TTITLE14=Weak Minded Blues
TTITLE15=Slow Down
TTITLE16=Trust in Me
TTITLE17=Everything That's Made of Wood
TTITLE18=Locked Up
TTITLE19=I Gotta Move
TTITLE20=If It's True
TTITLE21=Wake Up Jacob
TTITLE22=Perdido (Lost)
EXTD=
EXTT0=
EXTT1=
EXTT2=
EXTT3=
EXTT4=
EXTT5=
EXTT6=
EXTT7=
EXTT8=
EXTT9=
EXTT10=
EXTT11=
EXTT12=
EXTT13=
EXTT14=
EXTT15=
EXTT16=
EXTT17=
EXTT18=
EXTT19=
EXTT20=
EXTT21=
EXTT22=
PLAYORDER=
